<svg width="29" height="60" viewBox="0 0 29 60" fill="none" xmlns="http://www.w3.org/2000/svg">
<path d="M14.0715 44.3748C14.0715 44.3748 14.0715 23.6459 14.7744 23.6479C15.318 23.6479 16.0251 50.3868 16.0251 50.3868C15.0524 50.2748 14.0715 45.9873 14.0715 44.3748ZM27.6978 23.888C25.8198 15.8533 21.7061 8.94498 16.0333 3.6132L16.019 3.6012C15.3282 2.56886 14.6968 1.38446 14.19 0.136045L14.1409 0C14.143 0.0400133 14.143 0.0880293 14.143 0.136045C14.143 1.26642 13.626 2.27676 12.8106 2.95499L12.8045 2.95899C5.50082 9.02901 0.853795 17.974 0.700529 27.9833V28.0093C0.698485 28.1334 0.698486 28.2794 0.698486 28.4255C0.698486 38.3428 5.57234 47.1457 13.1028 52.6636L13.1825 52.7196L13.3603 52.8456C13.6886 55.2251 13.9693 57.6099 14.2022 60H15.4304C15.7696 57.017 16.2274 54.4061 16.8262 51.8453L16.7321 52.3234C17.5414 51.7733 18.2485 51.2031 18.9085 50.5849L18.9024 50.5909C24.6264 45.3951 28.1985 37.9927 28.1985 29.7759C28.1985 29.6539 28.1985 29.5338 28.1964 29.4118V29.4298C28.1903 27.4672 28.0084 25.5485 27.6631 23.6859L27.6937 23.884L27.6978 23.888Z" fill="#EEEEEE"/>
</svg>
