<svg width="50" height="60" viewBox="0 0 50 60" fill="none" xmlns="http://www.w3.org/2000/svg">
<path d="M49.5574 45.7114L28.9237 1.89269C28.4013 0.794058 27.3187 0.0702178 26.1039 0.00735135C24.8862 -0.0742329 23.7243 0.528141 23.0892 1.57022L0.709571 37.8176C0.014807 38.935 0.0294246 40.3535 0.747067 41.4563L11.6886 58.4004C12.5388 59.7066 14.1469 60.298 15.6408 59.8537L47.3931 50.4615C48.3604 50.1787 49.1576 49.4904 49.5784 48.5747C49.9935 47.6634 49.9864 46.6155 49.5589 45.7099L49.5574 45.7114ZM44.9378 47.5908L17.9941 55.5581C17.1722 55.8026 16.3832 55.0901 16.5542 54.2607L26.1804 8.16815C26.3604 7.30573 27.5513 7.16924 27.9277 7.96717L45.7477 45.8089C45.9072 46.1502 45.9091 46.5442 45.753 46.887C45.5969 47.2298 45.2984 47.487 44.9363 47.5908H44.9378Z" fill="#EEEEEE"/>
</svg>
